<?xml version="1.0" encoding="UTF-8"?>
<svg viewBox="-0.548 -0.148 512 511" xmlns="http://www.w3.org/2000/svg">
 <path d="m510.44 150.44-150.34-150.34h-209.66l-150.34 150.34v209.88l150.34 150.34h209.66l150.34-150.34z" fill="#fff" stroke="#000" stroke-width=".216"/>
 <path d="m159.73 487.98h191.09l136.94-137.16v-191.09l-136.94-136.94h-191.09l-136.94 136.94v191.09z" fill="#ed171f"/>
 <path d="m185.65 207.11h-34.704v-19.8h88.344v19.8h-33.912v116.35h-19.728z" fill="#fff"/>
 <path d="m378.9 323.46v-136.15h44.136c20.808 0 37.656 16.848 37.656 37.368 0 20.736-16.848 37.584-37.368 37.584h-24.696v61.2h-19.728z" fill="#fff"/>
 <path d="m255.13 280.04c0 24.192 19.728 43.92 44.208 43.92 24.12 0 43.92-19.728 43.92-43.92v-49.248c0-24.408-19.8-43.992-43.92-43.992-24.48 0-43.992 19.584-44.208 43.704v49.536z" fill="#fff"/>
 <path d="m81.9,235.62c.936.792 1.944,1.512 3.168,1.728l34.632,14.904c7.056,3.888 12.456,10.224 14.904,18.072 .72,3.672 1.224,7.344 1.224,10.944 0,23.472-19.08,42.696-42.696,42.696-20.016,0-37.368-13.896-41.76-33.408l19.008-5.616c1.728,11.016 11.52,19.296 22.752,19.296 12.672,0 22.896-10.224 22.896-22.968 0-1.944-.216-3.888-.72-5.616-.504-1.944-1.728-3.6-3.384-4.824-.504-.504-1.224-.792-1.728-1.008l-32.688-13.896c-2.736-1.224-5.184-2.448-7.632-4.176-.432-.504-.936-.936-1.44-1.44-24.624-22.464-8.784-63.504 24.696-63.504 14.832,0 28.512,9.072 33.912,23.184l-18.072,8.064c-2.232-6.84-8.784-11.448-15.84-11.448-9.288,0-16.848,7.56-16.848,16.848 0,4.608 1.944,9 5.616,12.168z" fill="#fff"/>
 <path d="m323.24 280.04v-49.248c0-13.464-10.728-24.192-23.904-24.192-13.464 0-24.192 10.728-24.192 24.192v49.248c0 13.248 10.728 24.192 24.192 24.192 13.176 0 23.904-10.944 23.904-24.192z" fill="#ed171f"/>
 <path d="m423.32 242.24c9.72 0 17.568-7.848 17.568-17.568 0-9.504-7.848-17.568-17.352-17.568h-24.912v35.136h24.696z" fill="#ed171f"/>
</svg>
